<svg xmlns="http://www.w3.org/2000/svg" version="1.1" viewBox="0.00 0.00 1000.00 1000.00">
<g stroke-width="2.00" fill="none" stroke-linecap="butt">
<path stroke="#86c6fd" vector-effect="non-scaling-stroke" d="&#10;  M 136.52 203.51&#10;  Q 124.28 227.03 121.39 253.38&#10;  C 120.81 258.64 120.53 266.11 120.53 272.56&#10;  Q 120.46 402.32 120.66 731.00&#10;  Q 120.66 735.23 120.77 739.60"/>
<path stroke="#8dccfc" vector-effect="non-scaling-stroke" d="&#10;  M 120.77 739.60&#10;  Q 122.96 778.17 143.27 808.48&#10;  Q 172.48 852.07 225.68 865.07&#10;  Q 240.21 868.62 250.08 868.99&#10;  Q 265.58 869.56 268.25 869.56&#10;  Q 501.75 869.52 733.25 869.56&#10;  Q 750.49 869.56 765.48 866.95&#10;  C 810.68 859.05 849.79 829.30 867.77 786.77&#10;  Q 875.98 767.33 878.36 746.80&#10;  Q 879.37 738.17 879.22 706.17&#10;  Q 879.12 684.63 879.22 294.57&#10;  Q 879.23 260.61 878.22 252.58&#10;  C 870.11 188.45 822.74 141.17 758.85 131.96&#10;  Q 750.64 130.78 735.08 130.72&#10;  C 637.31 130.36 491.22 130.69 282.69 130.65&#10;  Q 251.47 130.64 241.87 131.88&#10;  Q 217.54 135.01 195.22 146.22&#10;  Q 156.72 165.54 136.52 203.51"/>
<path stroke="#1796fe" vector-effect="non-scaling-stroke" d="&#10;  M 120.77 739.60&#10;  Q 121.41 736.78 121.51 734.88&#10;  Q 121.87 727.66 121.86 714.37&#10;  Q 121.78 436.30 121.91 271.26&#10;  Q 121.91 260.75 123.55 247.83&#10;  C 125.24 234.41 129.57 222.33 135.10 209.86&#10;  Q 136.25 207.25 136.52 203.51"/>
<path stroke="#8fcefe" vector-effect="non-scaling-stroke" d="&#10;  M 463.18 425.07&#10;  Q 436.50 398.15 398.22 359.28&#10;  C 383.11 343.95 359.02 359.46 366.45 379.47&#10;  Q 367.63 382.64 374.58 389.76&#10;  Q 412.73 428.82 464.37 481.48&#10;  A 0.69 0.69 0.0 0 1 464.37 482.45&#10;  Q 374.72 572.47 374.27 572.81&#10;  C 371.45 574.94 368.12 579.19 366.92 581.91&#10;  Q 362.27 592.48 368.83 601.48&#10;  C 374.04 608.64 383.58 611.42 391.53 607.96&#10;  Q 394.82 606.54 400.76 600.58&#10;  Q 427.03 574.25 463.12 537.75&#10;  A 0.45 0.45 0.0 0 1 463.89 538.07&#10;  Q 463.88 680.80 463.85 700.76&#10;  Q 463.83 713.50 474.60 718.19&#10;  C 481.48 721.19 489.98 719.45 495.07 714.32&#10;  Q 527.45 681.68 568.03 641.03&#10;  Q 598.59 610.42 610.36 598.38&#10;  C 619.27 589.27 618.96 578.29 610.35 569.79&#10;  Q 565.07 525.09 552.07 512.10&#10;  Q 532.01 492.06 521.99 482.37&#10;  A 1.59 1.59 0.0 0 1 521.98 480.10&#10;  Q 553.23 449.12 611.84 390.36&#10;  Q 615.25 386.95 616.56 381.61&#10;  C 618.21 374.95 615.38 368.85 610.59 364.09&#10;  Q 580.55 334.23 500.83 254.12&#10;  C 497.78 251.06 494.49 247.13 490.92 245.11&#10;  C 484.66 241.55 476.67 241.82 470.86 246.01&#10;  Q 463.86 251.06 463.86 261.24&#10;  Q 463.88 394.90 463.93 424.76&#10;  A 0.44 0.44 0.0 0 1 463.18 425.07"/>
<path stroke="#8fcefe" vector-effect="non-scaling-stroke" d="&#10;  M 290.52 550.43&#10;  L 271.14 550.43&#10;  A 1.19 1.19 0.0 0 1 270.06 549.74&#10;  Q 266.52 542.11 257.92 541.20&#10;  Q 252.96 540.68 241.54 541.29&#10;  C 233.71 541.70 227.34 544.40 224.60 552.14&#10;  C 221.35 561.35 227.01 570.26 236.59 571.96&#10;  Q 243.63 573.21 255.61 572.67&#10;  Q 267.02 572.16 270.43 562.05&#10;  A 0.82 0.81 -80.4 0 1 271.20 561.50&#10;  L 290.54 561.50&#10;  A 0.51 0.50 90.0 0 1 291.04 562.01&#10;  Q 291.07 573.11 291.01 579.46&#10;  Q 290.95 586.49 292.16 590.53&#10;  C 295.83 602.73 306.02 610.57 318.81 611.01&#10;  Q 329.02 611.36 340.25 611.18&#10;  C 348.12 611.06 348.64 607.57 348.72 600.13&#10;  Q 348.76 595.42 348.65 592.76&#10;  C 348.47 588.67 343.42 587.09 339.97 587.09&#10;  Q 332.89 587.08 322.88 587.04&#10;  Q 320.69 587.03 319.70 586.57&#10;  C 314.92 584.37 315.88 580.02 315.88 575.25&#10;  Q 315.90 500.63 315.84 421.72&#10;  C 315.84 418.33 316.27 416.57 318.72 414.69&#10;  Q 319.84 413.84 324.45 413.85&#10;  Q 338.52 413.91 340.00 413.91&#10;  C 350.29 413.91 348.65 408.00 348.72 399.11&#10;  C 348.77 393.92 348.03 390.43 342.67 390.02&#10;  Q 339.01 389.74 328.99 389.71&#10;  C 318.96 389.69 312.28 389.53 305.58 393.18&#10;  Q 296.07 398.36 292.64 408.53&#10;  Q 290.90 413.68 291.01 423.14&#10;  Q 291.11 432.01 291.04 437.99&#10;  A 0.63 0.63 0.0 0 1 290.41 438.61&#10;  L 270.90 438.61&#10;  A 1.21 1.21 0.0 0 1 269.73 437.70&#10;  C 268.48 432.60 262.93 428.56 257.69 428.15&#10;  Q 246.78 427.29 237.56 428.43&#10;  C 218.33 430.81 219.70 457.45 237.82 459.85&#10;  Q 246.88 461.04 255.65 460.39&#10;  C 262.06 459.91 267.96 457.16 269.67 450.76&#10;  A 0.97 0.97 0.0 0 1 270.61 450.04&#10;  L 290.61 450.04&#10;  A 0.41 0.41 0.0 0 1 291.02 450.45&#10;  L 291.02 493.92&#10;  A 0.40 0.39 -90.0 0 1 290.63 494.32&#10;  L 271.44 494.32&#10;  A 1.82 1.80 -12.6 0 1 269.80 493.29&#10;  C 266.03 485.34 259.97 483.34 250.86 483.50&#10;  Q 246.25 483.59 236.04 483.44&#10;  Q 229.22 483.33 225.54 485.11&#10;  C 212.07 491.58 212.64 511.04 226.59 516.66&#10;  Q 229.08 517.66 234.54 517.66&#10;  Q 252.47 517.65 252.83 517.66&#10;  Q 258.34 517.83 261.47 516.29&#10;  Q 267.30 513.42 270.09 506.59&#10;  A 1.34 1.33 -78.8 0 1 271.32 505.76&#10;  L 290.51 505.76&#10;  A 0.54 0.54 0.0 0 1 291.05 506.30&#10;  L 291.05 549.91&#10;  A 0.53 0.52 0.0 0 1 290.52 550.43"/>
<path stroke="#8fcefe" vector-effect="non-scaling-stroke" d="&#10;  M 709.28 450.03&#10;  L 728.55 450.03&#10;  A 0.82 0.82 0.0 0 1 729.33 450.60&#10;  C 731.39 456.99 736.98 459.85 744.04 460.21&#10;  Q 751.35 460.59 759.24 460.18&#10;  Q 765.47 459.85 768.74 457.88&#10;  C 779.74 451.24 778.91 434.82 767.30 429.37&#10;  Q 764.12 427.88 757.39 427.89&#10;  Q 745.27 427.90 740.77 428.69&#10;  Q 732.23 430.20 729.42 438.00&#10;  A 0.99 0.97 9.6 0 1 728.49 438.65&#10;  L 709.42 438.65&#10;  A 0.41 0.40 -0.7 0 1 709.01 438.26&#10;  Q 708.87 431.59 709.04 423.42&#10;  Q 709.24 413.94 707.53 408.87&#10;  C 703.36 396.50 692.57 389.92 679.51 389.73&#10;  Q 673.42 389.64 658.31 389.78&#10;  Q 651.63 389.85 651.51 396.36&#10;  Q 651.36 404.72 651.52 407.29&#10;  C 651.91 413.44 658.39 413.94 663.32 413.89&#10;  Q 669.76 413.82 678.77 413.97&#10;  Q 681.18 414.01 683.16 416.95&#10;  C 684.12 418.39 684.02 421.58 684.02 422.75&#10;  Q 683.98 514.30 684.07 580.50&#10;  C 684.08 585.92 680.07 587.20 675.04 587.05&#10;  Q 668.21 586.85 659.54 587.03&#10;  Q 651.46 587.19 651.44 594.72&#10;  Q 651.44 597.02 651.41 603.26&#10;  Q 651.38 607.86 654.64 609.93&#10;  Q 656.73 611.27 662.23 611.23&#10;  Q 675.61 611.12 676.70 611.14&#10;  Q 684.33 611.28 688.70 610.01&#10;  C 701.16 606.38 708.97 595.20 708.99 582.23&#10;  Q 709.01 571.66 708.96 561.94&#10;  A 0.41 0.41 0.0 0 1 709.37 561.53&#10;  L 728.12 561.53&#10;  A 0.91 0.90 -9.4 0 1 728.98 562.14&#10;  Q 732.02 571.03 741.56 572.25&#10;  Q 748.71 573.16 757.78 572.65&#10;  Q 766.61 572.16 770.74 569.01&#10;  C 779.75 562.13 778.37 546.77 767.05 542.96&#10;  C 759.36 540.36 750.91 540.73 742.59 541.29&#10;  Q 733.39 541.90 729.68 549.60&#10;  A 1.51 1.50 12.8 0 1 728.32 550.45&#10;  L 709.40 550.45&#10;  A 0.42 0.42 0.0 0 1 708.98 550.03&#10;  L 708.98 506.40&#10;  A 0.65 0.65 0.0 0 1 709.63 505.75&#10;  L 728.63 505.75&#10;  A 0.88 0.87 78.1 0 1 729.43 506.28&#10;  C 732.44 513.42 736.81 517.72 745.00 517.69&#10;  Q 767.11 517.63 768.01 517.59&#10;  C 786.36 516.87 790.05 491.52 773.54 484.77&#10;  Q 770.25 483.42 762.19 483.50&#10;  Q 753.32 483.59 749.88 483.51&#10;  C 740.31 483.30 734.04 485.28 729.75 493.61&#10;  A 1.33 1.31 -76.2 0 1 728.58 494.33&#10;  L 709.48 494.33&#10;  A 0.50 0.49 90.0 0 1 708.99 493.83&#10;  L 708.99 450.33&#10;  A 0.30 0.29 90.0 0 1 709.28 450.03"/>
<path stroke="#8fcefe" vector-effect="non-scaling-stroke" d="&#10;  M 503.85 311.81&#10;  A 0.34 0.34 0.0 0 0 503.27 312.05&#10;  L 503.27 443.79&#10;  A 0.34 0.34 0.0 0 0 503.85 444.03&#10;  L 569.46 378.16&#10;  A 0.34 0.34 0.0 0 0 569.46 377.68&#10;  L 503.85 311.81"/>
<path stroke="#8fcefe" vector-effect="non-scaling-stroke" d="&#10;  M 503.84 518.50&#10;  A 0.34 0.34 0.0 0 0 503.26 518.74&#10;  L 503.26 650.54&#10;  A 0.34 0.34 0.0 0 0 503.84 650.78&#10;  L 569.53 584.88&#10;  A 0.34 0.34 0.0 0 0 569.53 584.40&#10;  L 503.84 518.50"/>
</g>
<path fill="#fcfbfb" d="&#10;  M 1000.00 0.00&#10;  L 1000.00 1000.00&#10;  L 0.00 1000.00&#10;  L 0.00 0.00&#10;  L 1000.00 0.00&#10;  Z&#10;  M 136.52 203.51&#10;  Q 124.28 227.03 121.39 253.38&#10;  C 120.81 258.64 120.53 266.11 120.53 272.56&#10;  Q 120.46 402.32 120.66 731.00&#10;  Q 120.66 735.23 120.77 739.60&#10;  Q 122.96 778.17 143.27 808.48&#10;  Q 172.48 852.07 225.68 865.07&#10;  Q 240.21 868.62 250.08 868.99&#10;  Q 265.58 869.56 268.25 869.56&#10;  Q 501.75 869.52 733.25 869.56&#10;  Q 750.49 869.56 765.48 866.95&#10;  C 810.68 859.05 849.79 829.30 867.77 786.77&#10;  Q 875.98 767.33 878.36 746.80&#10;  Q 879.37 738.17 879.22 706.17&#10;  Q 879.12 684.63 879.22 294.57&#10;  Q 879.23 260.61 878.22 252.58&#10;  C 870.11 188.45 822.74 141.17 758.85 131.96&#10;  Q 750.64 130.78 735.08 130.72&#10;  C 637.31 130.36 491.22 130.69 282.69 130.65&#10;  Q 251.47 130.64 241.87 131.88&#10;  Q 217.54 135.01 195.22 146.22&#10;  Q 156.72 165.54 136.52 203.51&#10;  Z"/>
<path fill="#1e9cfd" d="&#10;  M 120.77 739.60&#10;  Q 121.41 736.78 121.51 734.88&#10;  Q 121.87 727.66 121.86 714.37&#10;  Q 121.78 436.30 121.91 271.26&#10;  Q 121.91 260.75 123.55 247.83&#10;  C 125.24 234.41 129.57 222.33 135.10 209.86&#10;  Q 136.25 207.25 136.52 203.51&#10;  Q 156.72 165.54 195.22 146.22&#10;  Q 217.54 135.01 241.87 131.88&#10;  Q 251.47 130.64 282.69 130.65&#10;  C 491.22 130.69 637.31 130.36 735.08 130.72&#10;  Q 750.64 130.78 758.85 131.96&#10;  C 822.74 141.17 870.11 188.45 878.22 252.58&#10;  Q 879.23 260.61 879.22 294.57&#10;  Q 879.12 684.63 879.22 706.17&#10;  Q 879.37 738.17 878.36 746.80&#10;  Q 875.98 767.33 867.77 786.77&#10;  C 849.79 829.30 810.68 859.05 765.48 866.95&#10;  Q 750.49 869.56 733.25 869.56&#10;  Q 501.75 869.52 268.25 869.56&#10;  Q 265.58 869.56 250.08 868.99&#10;  Q 240.21 868.62 225.68 865.07&#10;  Q 172.48 852.07 143.27 808.48&#10;  Q 122.96 778.17 120.77 739.60&#10;  Z&#10;  M 463.18 425.07&#10;  Q 436.50 398.15 398.22 359.28&#10;  C 383.11 343.95 359.02 359.46 366.45 379.47&#10;  Q 367.63 382.64 374.58 389.76&#10;  Q 412.73 428.82 464.37 481.48&#10;  A 0.69 0.69 0.0 0 1 464.37 482.45&#10;  Q 374.72 572.47 374.27 572.81&#10;  C 371.45 574.94 368.12 579.19 366.92 581.91&#10;  Q 362.27 592.48 368.83 601.48&#10;  C 374.04 608.64 383.58 611.42 391.53 607.96&#10;  Q 394.82 606.54 400.76 600.58&#10;  Q 427.03 574.25 463.12 537.75&#10;  A 0.45 0.45 0.0 0 1 463.89 538.07&#10;  Q 463.88 680.80 463.85 700.76&#10;  Q 463.83 713.50 474.60 718.19&#10;  C 481.48 721.19 489.98 719.45 495.07 714.32&#10;  Q 527.45 681.68 568.03 641.03&#10;  Q 598.59 610.42 610.36 598.38&#10;  C 619.27 589.27 618.96 578.29 610.35 569.79&#10;  Q 565.07 525.09 552.07 512.10&#10;  Q 532.01 492.06 521.99 482.37&#10;  A 1.59 1.59 0.0 0 1 521.98 480.10&#10;  Q 553.23 449.12 611.84 390.36&#10;  Q 615.25 386.95 616.56 381.61&#10;  C 618.21 374.95 615.38 368.85 610.59 364.09&#10;  Q 580.55 334.23 500.83 254.12&#10;  C 497.78 251.06 494.49 247.13 490.92 245.11&#10;  C 484.66 241.55 476.67 241.82 470.86 246.01&#10;  Q 463.86 251.06 463.86 261.24&#10;  Q 463.88 394.90 463.93 424.76&#10;  A 0.44 0.44 0.0 0 1 463.18 425.07&#10;  Z&#10;  M 290.52 550.43&#10;  L 271.14 550.43&#10;  A 1.19 1.19 0.0 0 1 270.06 549.74&#10;  Q 266.52 542.11 257.92 541.20&#10;  Q 252.96 540.68 241.54 541.29&#10;  C 233.71 541.70 227.34 544.40 224.60 552.14&#10;  C 221.35 561.35 227.01 570.26 236.59 571.96&#10;  Q 243.63 573.21 255.61 572.67&#10;  Q 267.02 572.16 270.43 562.05&#10;  A 0.82 0.81 -80.4 0 1 271.20 561.50&#10;  L 290.54 561.50&#10;  A 0.51 0.50 90.0 0 1 291.04 562.01&#10;  Q 291.07 573.11 291.01 579.46&#10;  Q 290.95 586.49 292.16 590.53&#10;  C 295.83 602.73 306.02 610.57 318.81 611.01&#10;  Q 329.02 611.36 340.25 611.18&#10;  C 348.12 611.06 348.64 607.57 348.72 600.13&#10;  Q 348.76 595.42 348.65 592.76&#10;  C 348.47 588.67 343.42 587.09 339.97 587.09&#10;  Q 332.89 587.08 322.88 587.04&#10;  Q 320.69 587.03 319.70 586.57&#10;  C 314.92 584.37 315.88 580.02 315.88 575.25&#10;  Q 315.90 500.63 315.84 421.72&#10;  C 315.84 418.33 316.27 416.57 318.72 414.69&#10;  Q 319.84 413.84 324.45 413.85&#10;  Q 338.52 413.91 340.00 413.91&#10;  C 350.29 413.91 348.65 408.00 348.72 399.11&#10;  C 348.77 393.92 348.03 390.43 342.67 390.02&#10;  Q 339.01 389.74 328.99 389.71&#10;  C 318.96 389.69 312.28 389.53 305.58 393.18&#10;  Q 296.07 398.36 292.64 408.53&#10;  Q 290.90 413.68 291.01 423.14&#10;  Q 291.11 432.01 291.04 437.99&#10;  A 0.63 0.63 0.0 0 1 290.41 438.61&#10;  L 270.90 438.61&#10;  A 1.21 1.21 0.0 0 1 269.73 437.70&#10;  C 268.48 432.60 262.93 428.56 257.69 428.15&#10;  Q 246.78 427.29 237.56 428.43&#10;  C 218.33 430.81 219.70 457.45 237.82 459.85&#10;  Q 246.88 461.04 255.65 460.39&#10;  C 262.06 459.91 267.96 457.16 269.67 450.76&#10;  A 0.97 0.97 0.0 0 1 270.61 450.04&#10;  L 290.61 450.04&#10;  A 0.41 0.41 0.0 0 1 291.02 450.45&#10;  L 291.02 493.92&#10;  A 0.40 0.39 -90.0 0 1 290.63 494.32&#10;  L 271.44 494.32&#10;  A 1.82 1.80 -12.6 0 1 269.80 493.29&#10;  C 266.03 485.34 259.97 483.34 250.86 483.50&#10;  Q 246.25 483.59 236.04 483.44&#10;  Q 229.22 483.33 225.54 485.11&#10;  C 212.07 491.58 212.64 511.04 226.59 516.66&#10;  Q 229.08 517.66 234.54 517.66&#10;  Q 252.47 517.65 252.83 517.66&#10;  Q 258.34 517.83 261.47 516.29&#10;  Q 267.30 513.42 270.09 506.59&#10;  A 1.34 1.33 -78.8 0 1 271.32 505.76&#10;  L 290.51 505.76&#10;  A 0.54 0.54 0.0 0 1 291.05 506.30&#10;  L 291.05 549.91&#10;  A 0.53 0.52 0.0 0 1 290.52 550.43&#10;  Z&#10;  M 709.28 450.03&#10;  L 728.55 450.03&#10;  A 0.82 0.82 0.0 0 1 729.33 450.60&#10;  C 731.39 456.99 736.98 459.85 744.04 460.21&#10;  Q 751.35 460.59 759.24 460.18&#10;  Q 765.47 459.85 768.74 457.88&#10;  C 779.74 451.24 778.91 434.82 767.30 429.37&#10;  Q 764.12 427.88 757.39 427.89&#10;  Q 745.27 427.90 740.77 428.69&#10;  Q 732.23 430.20 729.42 438.00&#10;  A 0.99 0.97 9.6 0 1 728.49 438.65&#10;  L 709.42 438.65&#10;  A 0.41 0.40 -0.7 0 1 709.01 438.26&#10;  Q 708.87 431.59 709.04 423.42&#10;  Q 709.24 413.94 707.53 408.87&#10;  C 703.36 396.50 692.57 389.92 679.51 389.73&#10;  Q 673.42 389.64 658.31 389.78&#10;  Q 651.63 389.85 651.51 396.36&#10;  Q 651.36 404.72 651.52 407.29&#10;  C 651.91 413.44 658.39 413.94 663.32 413.89&#10;  Q 669.76 413.82 678.77 413.97&#10;  Q 681.18 414.01 683.16 416.95&#10;  C 684.12 418.39 684.02 421.58 684.02 422.75&#10;  Q 683.98 514.30 684.07 580.50&#10;  C 684.08 585.92 680.07 587.20 675.04 587.05&#10;  Q 668.21 586.85 659.54 587.03&#10;  Q 651.46 587.19 651.44 594.72&#10;  Q 651.44 597.02 651.41 603.26&#10;  Q 651.38 607.86 654.64 609.93&#10;  Q 656.73 611.27 662.23 611.23&#10;  Q 675.61 611.12 676.70 611.14&#10;  Q 684.33 611.28 688.70 610.01&#10;  C 701.16 606.38 708.97 595.20 708.99 582.23&#10;  Q 709.01 571.66 708.96 561.94&#10;  A 0.41 0.41 0.0 0 1 709.37 561.53&#10;  L 728.12 561.53&#10;  A 0.91 0.90 -9.4 0 1 728.98 562.14&#10;  Q 732.02 571.03 741.56 572.25&#10;  Q 748.71 573.16 757.78 572.65&#10;  Q 766.61 572.16 770.74 569.01&#10;  C 779.75 562.13 778.37 546.77 767.05 542.96&#10;  C 759.36 540.36 750.91 540.73 742.59 541.29&#10;  Q 733.39 541.90 729.68 549.60&#10;  A 1.51 1.50 12.8 0 1 728.32 550.45&#10;  L 709.40 550.45&#10;  A 0.42 0.42 0.0 0 1 708.98 550.03&#10;  L 708.98 506.40&#10;  A 0.65 0.65 0.0 0 1 709.63 505.75&#10;  L 728.63 505.75&#10;  A 0.88 0.87 78.1 0 1 729.43 506.28&#10;  C 732.44 513.42 736.81 517.72 745.00 517.69&#10;  Q 767.11 517.63 768.01 517.59&#10;  C 786.36 516.87 790.05 491.52 773.54 484.77&#10;  Q 770.25 483.42 762.19 483.50&#10;  Q 753.32 483.59 749.88 483.51&#10;  C 740.31 483.30 734.04 485.28 729.75 493.61&#10;  A 1.33 1.31 -76.2 0 1 728.58 494.33&#10;  L 709.48 494.33&#10;  A 0.50 0.49 90.0 0 1 708.99 493.83&#10;  L 708.99 450.33&#10;  A 0.30 0.29 90.0 0 1 709.28 450.03&#10;  Z"/>
<path fill="#0f90fe" d="&#10;  M 120.77 739.60&#10;  Q 120.66 735.23 120.66 731.00&#10;  Q 120.46 402.32 120.53 272.56&#10;  C 120.53 266.11 120.81 258.64 121.39 253.38&#10;  Q 124.28 227.03 136.52 203.51&#10;  Q 136.25 207.25 135.10 209.86&#10;  C 129.57 222.33 125.24 234.41 123.55 247.83&#10;  Q 121.91 260.75 121.91 271.26&#10;  Q 121.78 436.30 121.86 714.37&#10;  Q 121.87 727.66 121.51 734.88&#10;  Q 121.41 736.78 120.77 739.60&#10;  Z"/>
<path fill="#ffffff" d="&#10;  M 463.18 425.07&#10;  A 0.44 0.44 0.0 0 0 463.93 424.76&#10;  Q 463.88 394.90 463.86 261.24&#10;  Q 463.86 251.06 470.86 246.01&#10;  C 476.67 241.82 484.66 241.55 490.92 245.11&#10;  C 494.49 247.13 497.78 251.06 500.83 254.12&#10;  Q 580.55 334.23 610.59 364.09&#10;  C 615.38 368.85 618.21 374.95 616.56 381.61&#10;  Q 615.25 386.95 611.84 390.36&#10;  Q 553.23 449.12 521.98 480.10&#10;  A 1.59 1.59 0.0 0 0 521.99 482.37&#10;  Q 532.01 492.06 552.07 512.10&#10;  Q 565.07 525.09 610.35 569.79&#10;  C 618.96 578.29 619.27 589.27 610.36 598.38&#10;  Q 598.59 610.42 568.03 641.03&#10;  Q 527.45 681.68 495.07 714.32&#10;  C 489.98 719.45 481.48 721.19 474.60 718.19&#10;  Q 463.83 713.50 463.85 700.76&#10;  Q 463.88 680.80 463.89 538.07&#10;  A 0.45 0.45 0.0 0 0 463.12 537.75&#10;  Q 427.03 574.25 400.76 600.58&#10;  Q 394.82 606.54 391.53 607.96&#10;  C 383.58 611.42 374.04 608.64 368.83 601.48&#10;  Q 362.27 592.48 366.92 581.91&#10;  C 368.12 579.19 371.45 574.94 374.27 572.81&#10;  Q 374.72 572.47 464.37 482.45&#10;  A 0.69 0.69 0.0 0 0 464.37 481.48&#10;  Q 412.73 428.82 374.58 389.76&#10;  Q 367.63 382.64 366.45 379.47&#10;  C 359.02 359.46 383.11 343.95 398.22 359.28&#10;  Q 436.50 398.15 463.18 425.07&#10;  Z&#10;  M 503.85 311.81&#10;  A 0.34 0.34 0.0 0 0 503.27 312.05&#10;  L 503.27 443.79&#10;  A 0.34 0.34 0.0 0 0 503.85 444.03&#10;  L 569.46 378.16&#10;  A 0.34 0.34 0.0 0 0 569.46 377.68&#10;  L 503.85 311.81&#10;  Z&#10;  M 503.84 518.50&#10;  A 0.34 0.34 0.0 0 0 503.26 518.74&#10;  L 503.26 650.54&#10;  A 0.34 0.34 0.0 0 0 503.84 650.78&#10;  L 569.53 584.88&#10;  A 0.34 0.34 0.0 0 0 569.53 584.40&#10;  L 503.84 518.50&#10;  Z"/>
<path fill="#1e9dfc" d="&#10;  M 503.85 311.81&#10;  L 569.46 377.68&#10;  A 0.34 0.34 0.0 0 1 569.46 378.16&#10;  L 503.85 444.03&#10;  A 0.34 0.34 0.0 0 1 503.27 443.79&#10;  L 503.27 312.05&#10;  A 0.34 0.34 0.0 0 1 503.85 311.81&#10;  Z"/>
<path fill="#ffffff" d="&#10;  M 290.52 550.43&#10;  A 0.53 0.52 0.0 0 0 291.05 549.91&#10;  L 291.05 506.30&#10;  A 0.54 0.54 0.0 0 0 290.51 505.76&#10;  L 271.32 505.76&#10;  A 1.34 1.33 -78.8 0 0 270.09 506.59&#10;  Q 267.30 513.42 261.47 516.29&#10;  Q 258.34 517.83 252.83 517.66&#10;  Q 252.47 517.65 234.54 517.66&#10;  Q 229.08 517.66 226.59 516.66&#10;  C 212.64 511.04 212.07 491.58 225.54 485.11&#10;  Q 229.22 483.33 236.04 483.44&#10;  Q 246.25 483.59 250.86 483.50&#10;  C 259.97 483.34 266.03 485.34 269.80 493.29&#10;  A 1.82 1.80 -12.6 0 0 271.44 494.32&#10;  L 290.63 494.32&#10;  A 0.40 0.39 -90.0 0 0 291.02 493.92&#10;  L 291.02 450.45&#10;  A 0.41 0.41 0.0 0 0 290.61 450.04&#10;  L 270.61 450.04&#10;  A 0.97 0.97 0.0 0 0 269.67 450.76&#10;  C 267.96 457.16 262.06 459.91 255.65 460.39&#10;  Q 246.88 461.04 237.82 459.85&#10;  C 219.70 457.45 218.33 430.81 237.56 428.43&#10;  Q 246.78 427.29 257.69 428.15&#10;  C 262.93 428.56 268.48 432.60 269.73 437.70&#10;  A 1.21 1.21 0.0 0 0 270.90 438.61&#10;  L 290.41 438.61&#10;  A 0.63 0.63 0.0 0 0 291.04 437.99&#10;  Q 291.11 432.01 291.01 423.14&#10;  Q 290.90 413.68 292.64 408.53&#10;  Q 296.07 398.36 305.58 393.18&#10;  C 312.28 389.53 318.96 389.69 328.99 389.71&#10;  Q 339.01 389.74 342.67 390.02&#10;  C 348.03 390.43 348.77 393.92 348.72 399.11&#10;  C 348.65 408.00 350.29 413.91 340.00 413.91&#10;  Q 338.52 413.91 324.45 413.85&#10;  Q 319.84 413.84 318.72 414.69&#10;  C 316.27 416.57 315.84 418.33 315.84 421.72&#10;  Q 315.90 500.63 315.88 575.25&#10;  C 315.88 580.02 314.92 584.37 319.70 586.57&#10;  Q 320.69 587.03 322.88 587.04&#10;  Q 332.89 587.08 339.97 587.09&#10;  C 343.42 587.09 348.47 588.67 348.65 592.76&#10;  Q 348.76 595.42 348.72 600.13&#10;  C 348.64 607.57 348.12 611.06 340.25 611.18&#10;  Q 329.02 611.36 318.81 611.01&#10;  C 306.02 610.57 295.83 602.73 292.16 590.53&#10;  Q 290.95 586.49 291.01 579.46&#10;  Q 291.07 573.11 291.04 562.01&#10;  A 0.51 0.50 90.0 0 0 290.54 561.50&#10;  L 271.20 561.50&#10;  A 0.82 0.81 -80.4 0 0 270.43 562.05&#10;  Q 267.02 572.16 255.61 572.67&#10;  Q 243.63 573.21 236.59 571.96&#10;  C 227.01 570.26 221.35 561.35 224.60 552.14&#10;  C 227.34 544.40 233.71 541.70 241.54 541.29&#10;  Q 252.96 540.68 257.92 541.20&#10;  Q 266.52 542.11 270.06 549.74&#10;  A 1.19 1.19 0.0 0 0 271.14 550.43&#10;  L 290.52 550.43&#10;  Z"/>
<path fill="#ffffff" d="&#10;  M 709.28 450.03&#10;  A 0.30 0.29 -90.0 0 0 708.99 450.33&#10;  L 708.99 493.83&#10;  A 0.50 0.49 90.0 0 0 709.48 494.33&#10;  L 728.58 494.33&#10;  A 1.33 1.31 -76.2 0 0 729.75 493.61&#10;  C 734.04 485.28 740.31 483.30 749.88 483.51&#10;  Q 753.32 483.59 762.19 483.50&#10;  Q 770.25 483.42 773.54 484.77&#10;  C 790.05 491.52 786.36 516.87 768.01 517.59&#10;  Q 767.11 517.63 745.00 517.69&#10;  C 736.81 517.72 732.44 513.42 729.43 506.28&#10;  A 0.88 0.87 78.1 0 0 728.63 505.75&#10;  L 709.63 505.75&#10;  A 0.65 0.65 0.0 0 0 708.98 506.40&#10;  L 708.98 550.03&#10;  A 0.42 0.42 0.0 0 0 709.40 550.45&#10;  L 728.32 550.45&#10;  A 1.51 1.50 12.8 0 0 729.68 549.60&#10;  Q 733.39 541.90 742.59 541.29&#10;  C 750.91 540.73 759.36 540.36 767.05 542.96&#10;  C 778.37 546.77 779.75 562.13 770.74 569.01&#10;  Q 766.61 572.16 757.78 572.65&#10;  Q 748.71 573.16 741.56 572.25&#10;  Q 732.02 571.03 728.98 562.14&#10;  A 0.91 0.90 -9.4 0 0 728.12 561.53&#10;  L 709.37 561.53&#10;  A 0.41 0.41 0.0 0 0 708.96 561.94&#10;  Q 709.01 571.66 708.99 582.23&#10;  C 708.97 595.20 701.16 606.38 688.70 610.01&#10;  Q 684.33 611.28 676.70 611.14&#10;  Q 675.61 611.12 662.23 611.23&#10;  Q 656.73 611.27 654.64 609.93&#10;  Q 651.38 607.86 651.41 603.26&#10;  Q 651.44 597.02 651.44 594.72&#10;  Q 651.46 587.19 659.54 587.03&#10;  Q 668.21 586.85 675.04 587.05&#10;  C 680.07 587.20 684.08 585.92 684.07 580.50&#10;  Q 683.98 514.30 684.02 422.75&#10;  C 684.02 421.58 684.12 418.39 683.16 416.95&#10;  Q 681.18 414.01 678.77 413.97&#10;  Q 669.76 413.82 663.32 413.89&#10;  C 658.39 413.94 651.91 413.44 651.52 407.29&#10;  Q 651.36 404.72 651.51 396.36&#10;  Q 651.63 389.85 658.31 389.78&#10;  Q 673.42 389.64 679.51 389.73&#10;  C 692.57 389.92 703.36 396.50 707.53 408.87&#10;  Q 709.24 413.94 709.04 423.42&#10;  Q 708.87 431.59 709.01 438.26&#10;  A 0.41 0.40 -0.7 0 0 709.42 438.65&#10;  L 728.49 438.65&#10;  A 0.99 0.97 9.6 0 0 729.42 438.00&#10;  Q 732.23 430.20 740.77 428.69&#10;  Q 745.27 427.90 757.39 427.89&#10;  Q 764.12 427.88 767.30 429.37&#10;  C 778.91 434.82 779.74 451.24 768.74 457.88&#10;  Q 765.47 459.85 759.24 460.18&#10;  Q 751.35 460.59 744.04 460.21&#10;  C 736.98 459.85 731.39 456.99 729.33 450.60&#10;  A 0.82 0.82 0.0 0 0 728.55 450.03&#10;  L 709.28 450.03&#10;  Z"/>
<path fill="#1e9dfc" d="&#10;  M 503.84 518.50&#10;  L 569.53 584.40&#10;  A 0.34 0.34 0.0 0 1 569.53 584.88&#10;  L 503.84 650.78&#10;  A 0.34 0.34 0.0 0 1 503.26 650.54&#10;  L 503.26 518.74&#10;  A 0.34 0.34 0.0 0 1 503.84 518.50&#10;  Z"/>
</svg>